<svg xmlns="http://www.w3.org/2000/svg" xmlns:xlink="http://www.w3.org/1999/xlink" width="374" zoomAndPan="magnify" viewBox="0 0 1500 1499.999933" height="373" preserveAspectRatio="xMidYMid meet" version="1.0"><defs><g/></defs><path fill="#e10e49" d="M 749.769531 -0.183594 C 336.265625 -0.183594 -0.183594 336.265625 -0.183594 749.769531 C -0.183594 1163.277344 336.265625 1499.726562 749.769531 1499.726562 C 1163.277344 1499.726562 1499.726562 1163.277344 1499.726562 749.769531 C 1499.726562 336.265625 1163.277344 -0.183594 749.769531 -0.183594 Z M 749.769531 1405.980469 C 387.917969 1405.980469 93.5625 1111.53125 93.5625 749.769531 C 93.5625 388.011719 387.917969 93.5625 749.769531 93.5625 C 1111.625 93.5625 1405.980469 388.011719 1405.980469 749.769531 C 1405.980469 1111.53125 1111.625 1405.980469 749.769531 1405.980469 Z M 749.769531 1405.980469 " fill-opacity="1" fill-rule="nonzero"/><g fill="#e10e49" fill-opacity="1"><g transform="translate(389.384678, 1160.736734)"><g><path d="M 136.84375 0 C 117.632812 0 101.34375 -6.6875 87.96875 -20.0625 C 74.59375 -33.4375 67.90625 -49.726562 67.90625 -68.9375 L 67.90625 -754.15625 C 67.90625 -774.039062 74.59375 -790.5 87.96875 -803.53125 C 101.34375 -816.570312 117.632812 -823.09375 136.84375 -823.09375 L 224.296875 -823.09375 C 244.179688 -823.09375 260.640625 -816.570312 273.671875 -803.53125 C 286.703125 -790.5 293.21875 -774.039062 293.21875 -754.15625 L 293.21875 -568.953125 C 293.21875 -550.441406 299.734375 -534.664062 312.765625 -521.625 C 325.804688 -508.59375 341.582031 -502.078125 360.09375 -502.078125 C 379.300781 -502.078125 395.421875 -508.59375 408.453125 -521.625 C 421.484375 -534.664062 428 -550.441406 428 -568.953125 L 428 -754.15625 C 428 -774.039062 434.6875 -790.5 448.0625 -803.53125 C 461.4375 -816.570312 477.726562 -823.09375 496.9375 -823.09375 L 584.390625 -823.09375 C 604.285156 -823.09375 620.75 -816.570312 633.78125 -803.53125 C 646.8125 -790.5 653.328125 -774.039062 653.328125 -754.15625 L 653.328125 -628.640625 C 653.328125 -605.316406 647.15625 -584.050781 634.8125 -564.84375 L 560.734375 -447.546875 C 545.640625 -423.546875 545.640625 -399.539062 560.734375 -375.53125 L 634.8125 -258.25 C 647.15625 -239.039062 653.328125 -217.773438 653.328125 -194.453125 L 653.328125 -68.9375 C 653.328125 -49.726562 646.8125 -33.4375 633.78125 -20.0625 C 620.75 -6.6875 604.285156 0 584.390625 0 L 496.9375 0 C 477.726562 0 461.4375 -6.6875 448.0625 -20.0625 C 434.6875 -33.4375 428 -49.726562 428 -68.9375 L 428 -254.125 C 428 -272.644531 421.484375 -288.59375 408.453125 -301.96875 C 395.421875 -315.34375 379.300781 -322.03125 360.09375 -322.03125 C 341.582031 -322.03125 325.804688 -315.515625 312.765625 -302.484375 C 299.734375 -289.453125 293.21875 -273.332031 293.21875 -254.125 L 293.21875 -68.9375 C 293.21875 -49.726562 286.703125 -33.4375 273.671875 -20.0625 C 260.640625 -6.6875 244.179688 0 224.296875 0 Z M 136.84375 0 "/></g></g></g></svg>